<?xml version="1.0" encoding="utf-8"?>
<!-- Generator: Adobe Illustrator 26.0.3, SVG Export Plug-In . SVG Version: 6.00 Build 0)  -->
<svg version="1.0" id="katman_1" xmlns="http://www.w3.org/2000/svg" xmlns:xlink="http://www.w3.org/1999/xlink" x="0px" y="0px"
	 viewBox="0 0 600 450" style="enable-background:new 0 0 600 450;" xml:space="preserve">
<style type="text/css">
	.st0{fill-rule:evenodd;clip-rule:evenodd;fill:#010202;}
	.st1{fill-rule:evenodd;clip-rule:evenodd;fill:#BCCAD8;}
</style>
<path class="st0" d="M505.9,255.7c-1.9,3.4-5.7,5.3-9.6,4.8c-5.8,0.1-10.7-4.5-10.8-10.3c0-0.3,0-0.7,0-1v-0.4H514v-2.7
	c0-12.5-6.8-20-18-20c-11.2,0-18.6,8.1-18.6,20.8s7.1,20.5,18.6,20.5c9.3,0,15.7-4.5,17.5-11.5L505.9,255.7z M496,232.6
	c5.3-0.2,9.8,4,9.9,9.4c0,0.3,0,0.6,0,0.9h-20.4c0-5.7,4.5-10.3,10.2-10.3C495.8,232.6,495.9,232.6,496,232.6z M455.5,266.4h8v-23.5
	c0-5.2,4.3-9.4,9.4-9.3c0.3,0,0.6,0,0.9,0c1.5,0,3,0.1,4.5,0.4v-7.7c-1.2-0.2-2.3-0.3-3.5-0.3c-4.7-0.4-9.1,2.4-10.9,6.7h-0.6v-6.1
	h-7.6L455.5,266.4z M433.1,267.2c11.8,0,19-7.7,19-20.6c0-12.9-7.7-20.6-19.5-20.6s-19.1,7.8-19.1,20.6s7.2,20.6,19.1,20.6H433.1z
	 M433.1,260.2c-7,0-10.8-5-10.8-13.5c0-8.5,3.9-13.5,10.8-13.5c7,0,10.8,5,10.8,13.5s-4.4,13.5-11.2,13.5H433.1z M396.3,217.1v9.8
	h-7.1v6.6h6.6v22.5c0,7.6,3.5,10.7,12.4,10.7c1.5,0,3-0.1,4.5-0.4v-6.5c-1,0.1-2,0.1-3,0c-4,0-5.7-1.8-5.7-6v-20.3h9v-6.6H404v-9.8
	H396.3z M347.9,252.3c0.6,9.4,8.5,15.5,20.4,15.5c12.7,0,20.6-6.3,20.6-16.4c0-7.9-4.5-12.3-15.5-14.8l-5.9-1.4
	c-7-1.6-9.8-3.8-9.8-7.5c0-4.8,4.5-7.9,11-7.9c5.3-0.7,10.2,2.7,11.3,7.9h8.1c-0.5-9-8.4-15.1-19.3-15.1c-11.7,0-19.5,6.2-19.5,15.6
	c0,7.7,4.5,12.3,14.1,14.6l6.9,1.6c7.1,1.7,10.2,4.1,10.2,8.1c0,4-4.9,8-11.5,8s-12.1-3.1-12.8-8.2L347.9,252.3z M312,260.1
	c-6.7,0-10.9-5.2-10.9-13.5s4.2-13.5,10.9-13.5c6.7,0,10.8,5.1,10.8,13.5C322.8,255,318.6,260,312,260.1L312,260.1z M314.2,226.1
	c-5.2-0.1-10.1,2.6-12.7,7.2H301v-6.6h-7.7v52.6h8v-18.9h0.6c2.6,4.4,7.4,7,12.4,6.7c10.2,0,16.7-7.9,16.7-20.5s-6.5-20.5-16.9-20.5
	L314.2,226.1z M270.6,260.1c-6.6,0-10.9-5.2-10.9-13.5s4.2-13.5,10.9-13.5c6.7,0,10.8,5.1,10.8,13.5
	C281.4,255,277.4,260,270.6,260.1L270.6,260.1z M272.9,226.1c-5.2-0.2-10.1,2.6-12.7,7.1h-0.6v-6.6h-7.7v52.6h8v-18.9h0.6
	c2.5,4.5,7.3,7.1,12.4,6.7c10.2,0,16.7-7.9,16.7-20.5S283.2,226,272.9,226.1L272.9,226.1z M225.2,223.4h0.6l7.8,22.2h-16.2
	L225.2,223.4z M240.6,266.5h9l-19.5-52.7h-9l-19.4,52.6h8.5l4.9-14.1h20.4L240.6,266.5z M507.3,192.7c-0.9,1.6-2.7,2.5-4.5,2.3
	c-2.8,0.2-5.2-2-5.3-4.7c0-0.3,0-0.5,0-0.8H511V188c0.6-4.6-2.5-8.8-7.1-9.4c-0.5-0.1-1-0.1-1.5-0.1c-5,0-9,4-9,8.9
	c0,0.3,0,0.6,0,0.9c-0.6,4.7,2.7,9.1,7.4,9.7c0.5,0.1,1,0.1,1.6,0.1c3.7,0.4,7.2-1.9,8.4-5.4H507.3z M502.8,181.7
	c2.5,0,4.5,2,4.5,4.5c0,0.1,0,0.3,0,0.4h-9.8c0-2.7,2.1-4.9,4.8-4.9c0.1,0,0.1,0,0.2,0H502.8z M471.4,197.7h3.8v-11.1
	c-0.2-2.5,1.7-4.6,4.2-4.8c0.4,0,0.7,0,1.1,0c2.9,0,4.5,1.5,4.5,4.5v11.3h3.8v-12.2c0-3.8-3.1-7-6.9-7c-2.4,0-4.7,1.2-6,3.3h-0.3
	v-10.4h-4.1V197.7z M457.9,174.2v4.5h-3.1v3.1h3.1v10.9c0,3.6,1.7,5.1,5.9,5.1c0.7,0.1,1.4,0.1,2.1,0v-3.3h-1.4
	c-1.9,0-2.7-0.9-2.7-2.8v-9.7h4.5v-3.1h-4.5v-4.5L457.9,174.2z M422.7,197.7h3.7v-11.1c-0.2-2.5,1.7-4.6,4.1-4.8c0.3,0,0.5,0,0.8,0
	c2.8,0,4.2,1.5,4.2,4.5v11.4h3.8v-12.2c0.1-3.8-2.9-7-6.7-7.1c-2.5-0.1-4.9,1.2-6.1,3.4h-0.1v-3h-3.7V197.7z M408.5,198.1
	c4.8,0.2,8.9-3.6,9-8.4c0-0.5,0-1-0.1-1.4c0-5-4-9-9-9s-9,4-9,9c-0.6,4.8,2.8,9.1,7.6,9.7C407.5,198.1,408,198.1,408.5,198.1z
	 M408.5,194.8c-3.3,0-5.2-2.4-5.2-6.5c0-4.1,1.7-6.5,5.2-6.5s5.2,2.4,5.2,6.5C413.6,192.4,411.5,194.8,408.5,194.8z M373.8,181.9
	c3.2,0,5.2,2.5,5.2,6.4c0,4-2,6.4-5.2,6.4s-5.2-2.4-5.2-6.4C368.7,184.3,370.6,181.9,373.8,181.9z M372.7,198.1
	c2.5,0.1,4.8-1.1,6-3.3h0.3v3h3.6v-26.3h-3.8v10.4h-0.3c-1.2-2.1-3.4-3.4-5.9-3.3c-4.9,0-8,3.8-8,9.8
	C364.7,194.3,368,198.1,372.7,198.1z M349.6,198.1c2.3,0.1,4.5-1,5.8-3h0.3v2.7h3.7v-12.8c0-4-2.7-6.4-7.5-6.4s-7.5,1.9-7.9,5.3h3.7
	c0.4-1.3,1.9-2.1,4-2.1s4,1.1,4,3.1v1.6l-5.2,0.3c-4.5,0.3-7.2,2.2-7.2,5.6c0.1,3.2,2.7,5.7,5.9,5.7
	C349.3,198.1,349.5,198.1,349.6,198.1z M350.6,194.9c-2.1,0-3.6-1-3.6-2.7c0-1.7,1.2-2.5,3.9-2.7l4.7-0.1v1.3
	c-0.2,2.5-2.3,4.3-4.8,4.1C350.8,194.9,350.7,194.9,350.6,194.9z M329.8,198.1c4.8,0.2,8.9-3.6,9-8.4c0-0.5,0-1-0.1-1.4c0-5-4-9-9-9
	s-9,4-9,9c-0.4,4.9,3.2,9.3,8.1,9.8C329.3,198.1,329.6,198.1,329.8,198.1z M329.8,194.8c-3.3,0-5.2-2.4-5.2-6.5
	c0-4.1,1.8-6.5,5.2-6.5s5.1,2.4,5.1,6.5C335,192.4,333.1,194.8,329.8,194.8z M311.3,197.7h3.8v-26.3h-3.8V197.7z M288.1,197.7h3.8
	v-11.1c-0.2-2.5,1.7-4.6,4.1-4.8c0.2,0,0.5,0,0.8,0c2.8,0,4.2,1.5,4.2,4.5v11.4h3.8v-12.2c0.1-3.8-2.9-6.9-6.7-7
	c-2.5,0-4.8,1.2-6,3.3h-0.4v-3H288L288.1,197.7z M283.3,178.8h-3.8l-3.4,14.5h-0.3l-4-14.5h-3.6l-4,14.5H264l-3.5-14.5h-3.9
	l5.3,18.9h3.9l4-13.9h0.3l4,13.9h4.1L283.3,178.8z M244.5,198.1c4.8,0.2,8.9-3.6,9-8.4c0-0.5,0-1-0.1-1.4c0-5-4-9-9-9c-5,0-9,4-9,9
	c-0.6,4.8,2.8,9.1,7.6,9.7C243.5,198.1,244,198.1,244.5,198.1z M244.5,194.8c-3.3,0-5.2-2.4-5.2-6.5c0-4.1,1.9-6.5,5.2-6.5
	c3.3,0,5.2,2.4,5.2,6.5C249.6,192.4,247.7,194.8,244.5,194.8z M213.3,176.2h4.8c4.4-0.3,8.2,3.1,8.5,7.5c0,0.5,0,1,0,1.5
	c0.6,4.4-2.5,8.4-6.8,8.9c-0.5,0.1-1.1,0.1-1.6,0.1h-4.8V176.2z M209.3,172.7v25.1h9.2c6.2,0.5,11.6-4.1,12.1-10.3
	c0.1-0.8,0-1.6-0.1-2.3c0.7-6.1-3.6-11.7-9.8-12.4c-0.7-0.1-1.5-0.1-2.2,0H209.3z"/>
<path class="st1" d="M156.9,227.9c0.1,8.9,5.5,16.9,13.7,20.3c-1.6,5.1-4,10-7.1,14.3c-4.3,6.2-8.7,12.3-15.6,12.3
	c-6.9,0-9-4-16.9-4s-10.3,3.8-16.8,4.1s-11.8-6.6-16.1-12.7c-8.6-12.4-15.6-35.2-6.5-50.7c4.3-7.6,12.3-12.4,21-12.6
	c6.7,0,12.9,4.5,17,4.5c4.1,0,11.7-5.5,19.6-4.5c7.5,0.2,14.4,3.9,18.8,10C161.2,212.9,157.1,220.1,156.9,227.9 M144,190.5
	c-3.7,4.6-9.3,7.2-15.2,7.1c-0.4-5.7,1.6-11.3,5.4-15.5c3.9-4.3,9.3-7.1,15.1-7.7C149.6,180.2,147.8,186,144,190.5"/>
</svg>
